<?xml version="1.0" encoding="UTF-8" standalone="no"?>
<!-- Created with Inkscape (http://www.inkscape.org/) -->

<svg
   width="38.718555mm"
   height="39.256935mm"
   viewBox="0 0 38.718555 39.256935"
   version="1.1"
   id="svg1"
   xml:space="preserve"
   xmlns="http://www.w3.org/2000/svg"
   xmlns:svg="http://www.w3.org/2000/svg"><defs
     id="defs1" /><g
     id="layer1"
     transform="translate(-1.5875,-1.5874999)"><path
       style="fill:#000000"
       d="M 26.154143,40.810546 C 25.884347,40.721426 25.477224,40.425374 24.939184,39.927049 24.602667,39.615372 23.1914,38.182626 22.533606,37.484858 l -0.697343,-0.739719 -0.634951,-0.01267 c -0.349223,-0.007 -0.753834,-0.01267 -0.899135,-0.01267 h -0.264185 l -0.04133,0.05278 c -0.02273,0.02903 -0.237128,0.263977 -0.476436,0.522103 -1.797126,1.938445 -2.854664,2.970379 -3.347837,3.266785 -0.274822,0.165173 -0.443657,0.209066 -0.625236,0.162548 -0.112345,-0.02878 -0.553342,-0.208276 -0.85738,-0.348971 -0.08445,-0.03908 -0.27015,-0.120568 -0.412663,-0.181084 -0.142513,-0.06052 -0.440494,-0.189629 -0.662181,-0.286919 -0.221687,-0.09729 -0.571491,-0.250576 -0.777343,-0.340636 -0.205852,-0.09006 -0.547019,-0.23967 -0.758149,-0.332466 -0.21113,-0.0928 -0.487519,-0.213252 -0.614197,-0.26768 -0.376635,-0.161823 -0.350281,-0.14134 -0.433207,-0.336695 -0.06266,-0.147622 -0.07896,-0.217401 -0.112098,-0.479841 -0.08943,-0.708361 -0.151338,-1.412051 -0.195868,-2.226463 -0.03141,-0.574463 -0.02597,-2.097259 0.0097,-2.715902 l 0.02933,-0.508632 -0.07238,-0.07677 c -0.03981,-0.04223 -0.299892,-0.314296 -0.577962,-0.6046 C 9.8346851,31.727052 9.5839271,31.46513 9.5555151,31.435308 l -0.05166,-0.05422 -1.562474,0.02309 c -2.733904,0.0404 -3.740935,-0.01748 -4.195549,-0.24113 -0.200725,-0.09876 -0.267605,-0.184491 -0.40101,-0.514061 -0.06071,-0.149979 -0.194285,-0.479981 -0.296835,-0.733337 -0.10255,-0.253356 -0.294544,-0.728399 -0.426653,-1.055651 -0.13211,-0.327252 -0.332898,-0.823887 -0.446196,-1.103635 C 1.643779,26.444377 1.697603,26.596568 1.696582,26.403212 c -8.65e-4,-0.163807 0.0032,-0.181183 0.07781,-0.335889 0.168196,-0.348583 0.4557981,-0.70838 1.1880611,-1.486292 0.402443,-0.427531 1.43064,-1.457275 2.154488,-2.157731 l 0.54222,-0.524698 v -0.906927 -0.906928 l -0.11996,-0.11234 C 5.3180931,19.765346 4.2561351,18.730289 3.8170631,18.293894 2.8137501,17.296699 2.1044561,16.525117 1.859552,16.164479 1.813382,16.096489 1.733277,15.942654 1.68155,15.822633 L 1.5875,15.604412 1.65422,15.408863 c 0.0367,-0.107553 0.139597,-0.372611 0.228671,-0.58902 0.08907,-0.216408 0.2490151,-0.60508 0.3554251,-0.863714 0.10641,-0.258635 0.289666,-0.703447 0.407235,-0.988473 0.11757,-0.285026 0.265931,-0.647786 0.329691,-0.806133 0.354665,-0.880802 0.454299,-1.090807 0.562537,-1.185699 0.09999,-0.08766 0.312062,-0.171594 0.565727,-0.223899 0.413053,-0.08517 1.420781,-0.125015 2.736066,-0.108183 1.00724,0.01289 2.267279,0.04262 2.508086,0.05918 l 0.147266,0.01013 0.6358939,-0.628988 0.635893,-0.6289884 -0.01087,-0.124689 c -0.06744,-0.773231 -0.105899,-4.291954 -0.05277,-4.827132 0.07558,-0.761252 0.189646,-1.048565 0.474263,-1.19457 0.05278,-0.02708 0.320534,-0.139449 0.595003,-0.249717 1.09599,-0.440313 1.394584,-0.560895 1.689042,-0.682087 0.168904,-0.06952 0.428018,-0.175099 0.575809,-0.234626 0.147791,-0.05953 0.51487,-0.208595 0.815731,-0.331262 l 0.547019,-0.2230311 0.172742,-4.54e-4 c 0.207581,-5.47e-4 0.279932,0.02831 0.585407,0.2334621 0.542761,0.364516 1.462828,1.261498 3.455956,3.369241 0.247474,0.261705 0.467226,0.479351 0.488339,0.483658 0.02111,0.0043 0.422741,0.01099 0.892505,0.01485 l 0.854118,0.007 0.143952,-0.15762 c 1.180694,-1.2928 2.338237,-2.490896 2.947675,-3.050941 0.686328,-0.630704 1.087819,-0.862635 1.383087,-0.798974 0.0857,0.01848 0.454503,0.171737 1.091445,0.453561 0.541782,0.239719 0.879321,0.387904 1.228394,0.539283 0.200573,0.08698 0.54174,0.235523 0.758149,0.330094 0.216408,0.09457 0.527345,0.229632 0.690971,0.300136 0.163626,0.0705 0.385597,0.167942 0.493269,0.216528 l 0.195766,0.08834 0.07665,0.184444 c 0.04927,0.118549 0.08385,0.239302 0.09679,0.337993 0.08911,0.679511 0.173303,1.626417 0.214177,2.408803 0.04208,0.805404 0.02487,2.470431 -0.0318,3.07595 l -0.01034,0.11053 0.579746,0.5996354 c 0.31886,0.329799 0.602806,0.623863 0.630991,0.653476 l 0.05124,0.05384 1.572453,-0.02364 c 3.06075,-0.04602 4.001666,0.03133 4.364088,0.358757 0.11049,0.09982 0.09893,0.07476 0.548317,1.188664 0.09795,0.2428 0.251469,0.622834 0.341145,0.844521 0.08968,0.221687 0.245144,0.606039 0.345484,0.854117 0.100339,0.248078 0.284479,0.701528 0.4092,1.007667 l 0.226764,0.556616 7.55e-4,0.18234 c 6.66e-4,0.160551 -0.0057,0.1961 -0.0531,0.297501 -0.199086,0.425706 -0.660345,0.974922 -1.73288,2.063318 -0.517452,0.525104 -1.463021,1.460746 -1.874453,1.854775 l -0.3023,0.289512 v 0.907545 0.907544 l 0.09117,0.08848 c 0.05014,0.04866 0.44731,0.432862 0.882592,0.853775 0.677903,0.655523 1.688037,1.673433 2.01099,2.026469 0.05271,0.05761 0.156289,0.170215 0.230185,0.250221 0.418672,0.453296 0.630118,0.743814 0.758808,1.042574 l 0.09767,0.226738 -0.06177,0.185926 c -0.06815,0.20511 -0.293704,0.764165 -0.97717,2.421986 -0.128387,0.311417 -0.296541,0.721681 -0.373675,0.911698 -0.217925,0.536848 -0.371512,0.893208 -0.422345,0.979948 -0.146698,0.250322 -0.53862,0.369242 -1.420717,0.431085 -0.562368,0.03943 -3.073815,0.02171 -4.353039,-0.03072 l -0.303179,-0.01242 -0.633161,0.630819 -0.63316,0.630818 0.02923,0.729359 c 0.07148,1.783632 0.09047,3.350534 0.04863,4.011801 -0.04516,0.713591 -0.141132,1.101206 -0.317679,1.28299 -0.092,0.09473 -0.167127,0.130493 -0.860564,0.409674 -0.748309,0.301273 -1.437379,0.579408 -2.055668,0.829746 -1.649223,0.667752 -1.599028,0.651748 -1.817638,0.579536 z m -4.27112,-12.594808 c 0.519389,-0.0581 0.862208,-0.1355 1.405507,-0.317323 0.834425,-0.279252 1.598819,-0.723123 2.312835,-1.343025 1.013507,-0.879918 1.812889,-2.18278 2.130691,-3.47268 0.175694,-0.713106 0.218509,-1.055052 0.218695,-1.746622 1.91e-4,-0.70638 -0.04816,-1.086147 -0.228493,-1.794607 -0.242018,-0.950807 -0.743662,-1.915636 -1.402101,-2.696708 -0.204188,-0.242217 -0.629251,-0.663914 -0.881938,-0.874953 -0.763402,-0.637576 -1.765193,-1.149429 -2.696708,-1.377848 -1.07804,-0.26435 -2.035316,-0.294526 -3.051791,-0.0962 -0.602629,0.117578 -0.970192,0.235291 -1.620783,0.519061 -0.426856,0.186182 -1.085384,0.6019 -1.504435,0.949723 -0.399556,0.331642 -0.856761,0.809635 -1.13608,1.187736 -0.478814,0.648146 -0.855842,1.392628 -1.091058,2.15441 -0.192629,0.623858 -0.294422,1.316187 -0.295559,2.010196 -0.0018,1.128045 0.24801,2.178457 0.745459,3.133933 0.191888,0.368569 0.23216,0.436215 0.44815,0.752781 0.664961,0.9746 1.567054,1.766574 2.611715,2.292902 0.440261,0.221816 0.521954,0.256407 0.940489,0.398231 0.654764,0.221872 1.151169,0.315286 1.957753,0.36841 0.215662,0.01421 0.807226,-0.01045 1.137652,-0.04741 z"
       id="path1" /></g></svg>
