<?xml version="1.0" encoding="UTF-8" standalone="no"?>
<!-- Created with Inkscape (http://www.inkscape.org/) -->

<svg
   width="14.971865mm"
   height="14.964964mm"
   viewBox="0 0 14.971865 14.964964"
   version="1.1"
   id="svg1"
   xml:space="preserve"
   xmlns="http://www.w3.org/2000/svg"
   xmlns:svg="http://www.w3.org/2000/svg"><defs
     id="defs1" /><g
     id="layer1"
     transform="translate(-1.5505479,-2.8432919)"><path
       style="fill:#000000"
       d="m 15.685194,17.759683 c 0.309295,-0.09671 0.619387,-0.374189 0.761279,-0.681212 l 0.07594,-0.164309 V 10.32514 3.7361188 l -0.119449,-0.220279 c -0.142913,-0.263548 -0.329362,-0.440286 -0.596733,-0.565654 l -0.197496,-0.0926 -2.292012,-0.01 c -2.227129,-0.0097 -2.295884,-0.008 -2.428711,0.05974 -0.220561,0.112522 -0.251793,0.220407 -0.251793,0.869785 0,0.631538 0.03291,0.745737 0.248157,0.861176 0.111097,0.05958 0.238922,0.06421 1.772478,0.06421 1.847469,0 1.82157,-0.0033 1.95642,0.248157 0.06137,0.114428 0.06421,0.352238 0.06421,5.3686152 0,5.750567 0.01355,5.38106 -0.203226,5.540637 -0.09159,0.06742 -0.165514,0.071 -1.817407,0.08785 -1.616859,0.0165 -1.727939,0.02164 -1.820367,0.08429 -0.179429,0.12161 -0.200268,0.209739 -0.200268,0.846961 0,0.650313 0.02347,0.741737 0.22134,0.862388 0.10864,0.06624 0.190965,0.06852 2.396699,0.06638 1.775895,-0.0017 2.316849,-0.01243 2.430939,-0.0481 z M 6.3675321,14.957975 c 0.11093,-0.02967 0.866916,-0.7575 0.95027,-0.914882 0.06413,-0.121081 0.06416,-0.286431 8.1e-5,-0.407617 -0.0276,-0.05219 -0.187088,-0.22931 -0.354423,-0.393596 -0.167334,-0.164286 -0.587536,-0.5941 -0.933783,-0.955142 -0.704321,-0.734417 -0.728237,-0.778922 -0.526817,-0.980341 l 0.102721,-0.102721 3.4202107,-1.31e-4 c 3.3302262,-1.28e-4 3.4231702,-0.0019 3.5327142,-0.06873 0.203903,-0.124327 0.2369,-0.236331 0.248887,-0.844818 0.01187,-0.6027107 -0.01555,-0.7124287 -0.2146,-0.8584664 -0.09836,-0.07217 -0.128589,-0.07293 -3.5787592,-0.09035 l -3.4795607,-0.01757 -0.06717,-0.08296 c -0.03868,-0.04778 -0.06717,-0.137307 -0.06717,-0.211102 0,-0.1208297 0.05235,-0.1802567 0.917443,-1.0415644 0.999819,-0.9954403 1.082217,-1.1043243 1.01752,-1.3445913 -0.02741,-0.10178 -0.138539,-0.234761 -0.470223,-0.5626701 -0.431766,-0.426853 -0.435313,-0.429392 -0.599868,-0.429392 -0.09104,0 -0.208235,0.0227 -0.260427,0.05044 -0.05219,0.02774 -1.055023,1.0121431 -2.228514,2.1875554 C 2.2698851,9.3979706 1.626286,10.06557 1.5875,10.159504 c -0.04462,0.108054 -0.04756,0.160478 -0.01567,0.278909 0.03935,0.146149 0.6905611,0.805908 3.8287031,3.878984 0.680842,0.666725 0.735024,0.702618 0.966996,0.640579 z"
       id="path1" /></g></svg>
