<?xml version="1.0" encoding="UTF-8" standalone="no"?>
<!-- Created with Inkscape (http://www.inkscape.org/) -->

<svg
   width="46.688522mm"
   height="46.556511mm"
   viewBox="0 0 46.688522 46.556511"
   version="1.1"
   id="svg1"
   xml:space="preserve"
   xmlns="http://www.w3.org/2000/svg"
   xmlns:svg="http://www.w3.org/2000/svg"><defs
     id="defs1" /><g
     id="layer1"
     transform="translate(-3.1408299,-2.1166667)"><path
       style="fill:#000000"
       d="m 44.584052,48.558707 c -1.035846,-0.244043 -1.503569,-0.635437 -5.360131,-4.485408 -4.490471,-4.482797 -4.545258,-4.559481 -4.545258,-6.361923 0,-1.280749 0.330872,-2.085904 1.224357,-2.979389 0.887762,-0.887762 1.695561,-1.217996 2.979389,-1.217996 1.81021,0 1.881702,0.05101 6.361923,4.538897 2.36181,2.365854 3.956771,4.059551 4.107805,4.3621 0.432284,0.865947 0.582324,1.894311 0.403032,2.762358 -0.205079,0.992891 -0.49214,1.532278 -1.183326,2.223464 -0.666248,0.666248 -1.209861,0.964749 -2.100888,1.153608 -0.740974,0.157055 -1.233729,0.158175 -1.886903,0.0043 z M 19.301276,38.726955 C 15.335467,38.229944 11.311333,36.24253 8.4577604,33.371627 5.6691014,30.566033 3.8634734,26.953026 3.2679144,22.986906 c -0.169534,-1.129013 -0.169425,-3.827394 2.01e-4,-4.955294 0.178256,-1.185281 0.644916,-3.022396 1.022686,-4.026038 1.628921,-4.3276467 5.2264769,-8.2303097 9.3075696,-10.0969427 4.521907,-2.0682541 9.119192,-2.3472951 13.693959,-0.831181 6.176301,2.046875 10.879556,7.3879077 12.190757,13.8438677 1.227862,6.045625 -0.806304,12.460984 -5.315497,16.76403 -2.892835,2.760584 -6.404338,4.458041 -10.330611,4.993809 -0.89047,0.121511 -3.710402,0.151228 -4.535703,0.0478 z m 4.270029,-3.755484 c 1.653309,-0.261261 2.785842,-0.616639 4.276345,-1.341875 5.104535,-2.48372 8.246317,-7.482458 8.2395,-13.109467 -0.0031,-2.557764 -0.465707,-4.486528 -1.616881,-6.741311 -1.786117,-3.498436 -4.925541,-6.1260587 -8.702949,-7.2841627 -1.597247,-0.489695 -2.593348,-0.635929 -4.31734,-0.63381 -3.836115,0.0047 -7.32445,1.400239 -10.065568,4.026776 -8.0847306,7.7467837 -4.9163776,21.2197637 5.781849,24.5865147 2.049987,0.645134 4.343021,0.823182 6.405044,0.497335 z"
       id="path1" /></g></svg>
